<svg width="20" height="20" viewBox="0 0 20 20" fill="none" xmlns="http://www.w3.org/2000/svg">
<path d="M4.63155 8.13582L4.39239 7.24665C4.15155 6.35582 4.68072 5.43998 5.57239 5.20248L13.9416 2.97248C14.8249 2.73748 15.7416 3.26665 15.9799 4.14915L17.4416 9.57332C17.6816 10.4641 17.1516 11.38 16.2616 11.6175L14.4999 12.0866" fill="#FFF1DB"/>
<path d="M4.63155 8.13582L4.39239 7.24665C4.15155 6.35582 4.68072 5.43998 5.57239 5.20248L13.9416 2.97248C14.8249 2.73748 15.7416 3.26665 15.9799 4.14915L17.4416 9.57332C17.6816 10.4641 17.1516 11.38 16.2616 11.6175L14.4999 12.0866" stroke="#FD9339" stroke-linecap="round" stroke-linejoin="round"/>
<rect x="2.5" y="8.33331" width="11.6667" height="3.33333" fill="white"/>
<path d="M4.16667 17.0834H12.8333C13.7542 17.0834 14.5 16.3375 14.5 15.4167V9.80253C14.5 8.8817 13.7542 8.13586 12.8333 8.13586H4.16667C3.24583 8.13586 2.5 8.8817 2.5 9.80253V15.4167C2.5 16.3375 3.24667 17.0834 4.16667 17.0834Z" stroke="#FD9339" stroke-linecap="round" stroke-linejoin="round"/>
<path d="M2.5 11.535H14.5" stroke="#FD9339" stroke-linecap="round" stroke-linejoin="round"/>
</svg>
