<svg width="24" height="24" viewBox="0 0 24 24" fill="none" xmlns="http://www.w3.org/2000/svg">
<path d="M21.12 4.32001C20.3246 4.32001 19.68 4.96465 19.68 5.76001C19.68 6.55537 20.3246 7.20001 21.12 7.20001C21.9154 7.20001 22.56 6.55537 22.56 5.76001C22.56 4.96465 21.9154 4.32001 21.12 4.32001ZM21.12 5.28001C21.385 5.28001 21.6 5.49505 21.6 5.76001C21.6 6.02497 21.385 6.24001 21.12 6.24001C20.855 6.24001 20.64 6.02497 20.64 5.76001C20.64 5.49505 20.855 5.28001 21.12 5.28001ZM6.81938 6.22313C5.65633 6.22313 4.90727 6.85811 4.87031 7.86563H5.90062C5.9299 7.40435 6.27241 7.11282 6.78937 7.11282C7.31017 7.11282 7.6425 7.38591 7.6425 7.81407C7.6425 8.24943 7.29904 8.54438 6.79312 8.54438H6.14344V9.37501H6.80437C7.40245 9.37501 7.76813 9.6627 7.76813 10.1278C7.76813 10.5819 7.3804 10.8956 6.82312 10.8956C6.25096 10.8956 5.86999 10.6118 5.83687 10.1616H4.77094C4.81894 11.1652 5.62291 11.8228 6.81187 11.8228C8.02627 11.8228 8.90531 11.1472 8.90531 10.2131C8.90531 9.51233 8.44712 9.02488 7.71656 8.94376V8.87719C8.3108 8.75527 8.69812 8.27476 8.69812 7.65844C8.69812 6.82084 7.91185 6.22313 6.81938 6.22313ZM12.0094 6.22313C10.6212 6.22313 9.7875 7.29356 9.7875 9.06188C9.7875 9.79292 9.93855 10.405 10.2337 10.8591C10.5995 11.4831 11.2197 11.8228 11.9916 11.8228C13.1839 11.8228 14.0287 11.0364 14.0287 9.92907C14.0288 8.91003 13.287 8.16094 12.2756 8.16094C11.6555 8.16094 11.1605 8.44449 10.9172 8.94657H10.8506C10.8285 7.84305 11.2713 7.13813 12.0019 7.13813C12.419 7.13813 12.7513 7.35913 12.855 7.71001H13.9584C13.8068 6.82057 13.0207 6.22313 12.0094 6.22313ZM17.085 6.22313C15.7746 6.22313 14.97 7.24865 14.97 9.01313C14.97 10.7815 15.7674 11.8228 17.085 11.8228C18.4026 11.8228 19.1991 10.7775 19.1991 9.01688C19.1991 7.24904 18.3916 6.22313 17.085 6.22313ZM17.085 7.13438C17.6936 7.13438 18.0703 7.77281 18.0703 9.01313C18.0703 10.2611 17.6975 10.9144 17.085 10.9144C16.4764 10.9144 16.0997 10.2573 16.0997 9.01313C16.0997 7.77665 16.4797 7.13438 17.085 7.13438ZM11.9831 9.02063C12.5409 9.02063 12.9469 9.419 12.9469 9.96188C12.9469 10.4976 12.5261 10.9074 11.9794 10.9069C11.4331 10.9069 11.0156 10.4935 11.0156 9.95063C11.0156 9.41927 11.4254 9.02063 11.9831 9.02063ZM20.5444 10.2319C20.4366 10.2373 20.3339 10.2788 20.2526 10.3498C20.1714 10.4208 20.1164 10.5171 20.0966 10.6231C20.0768 10.7292 20.0932 10.8388 20.1434 10.9343C20.1935 11.0299 20.2743 11.1057 20.3728 11.1497C21.2487 11.5564 21.9353 12.0242 22.3837 12.5025C22.8322 12.9808 23.04 13.4486 23.04 13.92C23.04 14.4271 22.7985 14.9333 22.2778 15.4463C21.7572 15.9592 20.9636 16.4536 19.9613 16.8713C17.9566 17.7065 15.1272 18.24 12 18.24C8.87284 18.24 6.04343 17.7065 4.03875 16.8713C3.03641 16.4536 2.24284 15.9592 1.72219 15.4463C1.20153 14.9333 0.96 14.4271 0.96 13.92C0.96 13.4627 1.15452 13.01 1.57594 12.5456C1.99736 12.0812 2.64377 11.6249 3.47156 11.2238C3.52834 11.1963 3.57915 11.158 3.6211 11.1109C3.66304 11.0638 3.6953 11.0089 3.71604 10.9493C3.73677 10.8898 3.74556 10.8267 3.74192 10.7638C3.73828 10.7008 3.72227 10.6392 3.69481 10.5824C3.66735 10.5257 3.62898 10.4749 3.58188 10.4329C3.53479 10.391 3.47989 10.3588 3.42033 10.3381C3.36077 10.3173 3.29772 10.3086 3.23476 10.3122C3.17181 10.3159 3.1102 10.3319 3.05344 10.3594C2.14699 10.7987 1.40161 11.3087 0.865312 11.8997C0.329014 12.4907 0 13.1821 0 13.92C0 14.7384 0.402906 15.495 1.04813 16.1306C1.69334 16.7663 2.58702 17.3062 3.66937 17.7572C5.83409 18.6592 8.76476 19.2 12 19.2C15.2352 19.2 18.1659 18.6592 20.3306 17.7572C21.413 17.3062 22.3067 16.7663 22.9519 16.1306C23.5971 15.495 24 14.7384 24 13.92C24 13.1593 23.6503 12.4492 23.0841 11.8453C22.5178 11.2414 21.7327 10.7221 20.7778 10.2788C20.7052 10.2438 20.6249 10.2277 20.5444 10.2319Z" fill="#808080"/>
</svg>
