<svg width="116" height="20" viewBox="0 0 116 20" fill="none" xmlns="http://www.w3.org/2000/svg">
<path d="M28.752 2.752C28.528 2.752 27.728 2.768 26.352 2.8C25.984 2.8 25.68 3.12 25.68 3.488V13.328C25.68 13.696 25.984 14 26.352 14.016C27.264 14.032 28.048 14.048 28.688 14.048C31.136 14.048 32.752 12.976 32.752 10.8C32.752 9.312 31.856 8.384 30.432 8.128C31.584 7.728 32.352 6.864 32.352 5.52C32.352 3.84 31.264 2.752 28.752 2.752ZM28.848 8.896C30.464 8.896 31.392 9.552 31.392 10.72C31.392 12.064 30.448 12.768 28.768 12.768C28.112 12.768 27.536 12.752 27.04 12.704V8.896H28.848ZM27.04 4.08C27.84 4.048 28.4 4.032 28.72 4.032C30.24 4.032 30.992 4.624 30.992 5.824C30.992 6.992 30.064 7.696 28.832 7.696H27.04V4.08ZM45.6607 7.376C45.6607 7.04 45.3888 6.72 45.0208 6.72C44.7488 6.72 44.4447 6.912 44.1087 7.312L40.2207 12.096V7.328C40.2847 6.544 38.8767 6.544 38.9407 7.328V13.472C38.9407 13.808 39.2127 14.112 39.5807 14.112C39.8687 14.112 40.1727 13.92 40.4927 13.536L44.3808 8.752V13.504C44.3168 14.288 45.7248 14.288 45.6607 13.504V7.376ZM50.404 6.64C49.476 6.64 48.692 6.832 48.052 7.2C47.828 7.344 47.716 7.504 47.716 7.712C47.716 7.808 47.732 7.888 47.78 7.968C47.892 8.144 48.052 8.24 48.26 8.24C48.372 8.24 48.484 8.224 48.564 8.176C49.108 7.92 49.652 7.792 50.212 7.792C51.156 7.792 51.748 8.192 51.748 8.832C51.748 9.408 51.22 9.856 50.5 9.856H49.908C49.604 9.856 49.364 10.096 49.364 10.368C49.364 10.672 49.604 10.896 49.908 10.896H50.58C51.46 10.896 51.988 11.232 51.988 11.824C51.988 12.528 51.204 13.008 50.1 13.008C49.588 13.008 49.044 12.848 48.468 12.512C48.356 12.448 48.244 12.416 48.132 12.416C47.924 12.416 47.764 12.496 47.652 12.672C47.572 12.8 47.54 12.912 47.54 13.008C47.54 13.216 47.636 13.376 47.812 13.504C48.468 13.936 49.284 14.16 50.292 14.16C52.1 14.16 53.348 13.328 53.348 12C53.348 11.12 52.804 10.416 51.844 10.288C52.692 9.984 53.108 9.408 53.108 8.576C53.108 7.376 52.132 6.64 50.404 6.64ZM62.4559 10.464C62.4559 8.288 61.1599 6.88 59.1119 6.88C57.8959 6.88 56.7119 7.552 56.2479 8.56C56.3599 6.752 56.9519 5.584 58.0559 5.088C58.4399 4.912 59.0319 4.752 59.8159 4.608C60.5999 4.464 61.1759 4.224 61.5439 3.888C61.6879 3.76 61.7679 3.6 61.7679 3.408C61.7679 3.264 61.7199 3.136 61.6239 3.024C61.5119 2.88 61.3679 2.8 61.1919 2.8C61.0159 2.8 60.8079 2.88 60.5999 3.024C60.3599 3.168 59.9119 3.296 59.2719 3.408C58.6319 3.52 58.0879 3.664 57.6239 3.872C55.8479 4.624 54.9519 6.56 54.9519 9.68C54.9519 12.448 56.4079 14.16 58.7599 14.16C59.8319 14.16 60.7279 13.792 61.4159 13.072C62.1039 12.352 62.4559 11.488 62.4559 10.464ZM56.3119 9.92C56.5519 8.912 57.5119 8.08 58.7919 8.08C60.2479 8.08 61.0959 9.072 61.0959 10.528C61.0959 11.216 60.8719 11.792 60.4399 12.256C59.9919 12.72 59.4159 12.96 58.7279 12.96C57.3039 12.96 56.3119 11.76 56.3119 9.92ZM65.6851 13.664C66.1811 14 66.8691 14.16 67.7171 14.16C68.8211 14.16 69.7331 13.792 70.4211 13.056C71.1091 12.32 71.4611 11.392 71.4611 10.288C71.4611 9.216 71.1571 8.336 70.5651 7.648C69.9571 6.976 69.1411 6.64 68.1331 6.64C67.1571 6.64 66.1971 7.056 65.6851 7.648V7.328C65.7491 6.544 64.3411 6.544 64.4051 7.328V16.592C64.3411 17.376 65.7491 17.376 65.6851 16.592V13.664ZM65.6851 8.832C66.2131 8.176 66.9171 7.84 67.7651 7.84C69.2211 7.84 70.1011 8.848 70.1011 10.336C70.1011 11.872 69.1251 12.96 67.6051 12.96C66.8851 12.96 66.2451 12.768 65.6851 12.4V8.832ZM72.9437 11.888C72.9437 13.248 73.8237 14.112 75.1517 14.112C76.1277 14.112 76.8957 13.76 77.4557 13.072V13.552C77.4557 13.856 77.7277 14.112 78.0637 14.112C78.3997 14.112 78.6717 13.856 78.6717 13.552V9.584C78.6717 7.616 77.8877 6.64 75.9037 6.64C75.2797 6.64 74.6077 6.784 73.9197 7.072C73.7117 7.152 73.5997 7.328 73.5997 7.584C73.5997 7.664 73.6157 7.728 73.6477 7.808C73.7437 8.016 73.9037 8.128 74.1437 8.128C74.2237 8.128 74.3037 8.112 74.3837 8.08C74.8797 7.888 75.3597 7.792 75.8237 7.792C77.1517 7.792 77.4557 8.528 77.4557 10.064C77.0237 9.76 76.4317 9.6 75.6637 9.6C74.0637 9.6 72.9437 10.464 72.9437 11.888ZM77.4557 12.032C76.9277 12.656 76.3197 12.96 75.5997 12.96C74.7837 12.96 74.3037 12.528 74.3037 11.824C74.3037 11.056 74.9917 10.64 75.8397 10.64C76.4637 10.64 77.0077 10.8 77.4557 11.12V12.032ZM87.5351 7.328C87.5991 6.544 86.1911 6.544 86.2551 7.328V9.76H82.2551V7.328C82.3191 6.544 80.9111 6.544 80.9751 7.328V13.504C80.9111 14.288 82.3191 14.288 82.2551 13.504V10.96H86.2551V13.504C86.1911 14.288 87.5991 14.288 87.5351 13.504V7.328ZM96.5545 7.328C96.6185 6.544 95.2105 6.544 95.2745 7.328V9.76H91.2745V7.328C91.3385 6.544 89.9305 6.544 89.9945 7.328V13.504C89.9305 14.288 91.3385 14.288 91.2745 13.504V10.96H95.2745V13.504C95.2105 14.288 96.6185 14.288 96.5545 13.504V7.328ZM99.6059 13.088C100.31 13.808 101.238 14.16 102.374 14.16C103.51 14.16 104.438 13.808 105.158 13.088C105.862 12.384 106.214 11.488 106.214 10.4C106.214 9.312 105.862 8.416 105.158 7.696C104.438 6.992 103.51 6.64 102.374 6.64C101.238 6.64 100.31 6.992 99.6059 7.696C98.8859 8.416 98.5339 9.312 98.5339 10.4C98.5339 11.488 98.8859 12.384 99.6059 13.088ZM99.8939 10.4C99.8939 8.88 100.95 7.84 102.374 7.84C103.83 7.84 104.854 8.912 104.854 10.4C104.854 11.92 103.83 12.96 102.374 12.96C100.918 12.96 99.8939 11.888 99.8939 10.4ZM109.085 9.76C109.229 8.624 110.093 7.84 111.373 7.84C112.605 7.84 113.389 8.56 113.453 9.76H109.085ZM114.781 9.936C114.781 8.96 114.461 8.176 113.821 7.552C113.181 6.944 112.381 6.64 111.437 6.64C110.285 6.64 109.373 6.992 108.717 7.696C108.061 8.416 107.725 9.312 107.725 10.4C107.725 11.536 108.077 12.448 108.781 13.136C109.485 13.824 110.413 14.16 111.581 14.16C112.525 14.16 113.373 13.888 114.125 13.36C114.253 13.28 114.317 13.136 114.317 12.928C114.317 12.816 114.285 12.72 114.221 12.64C114.093 12.496 113.949 12.432 113.789 12.432C113.677 12.432 113.549 12.464 113.437 12.528C112.941 12.816 112.349 12.96 111.677 12.96C110.253 12.96 109.277 12.144 109.165 10.8H114.221C114.477 10.8 114.749 10.544 114.765 10.288C114.781 10.208 114.781 10.096 114.781 9.936Z" fill="#FD9339"/>
<g clip-path="url(#clip0_6485_15159)">
<path d="M13.0833 2.32373C15.725 2.32373 17.5 4.79679 17.5 7.10387C17.5 11.7761 10.1333 15.6019 10 15.6019C9.86667 15.6019 2.5 11.7761 2.5 7.10387C2.5 4.79679 4.275 2.32373 6.91667 2.32373C8.43333 2.32373 9.425 3.07893 10 3.74283C10.575 3.07893 11.5667 2.32373 13.0833 2.32373Z" fill="#FD9339"/>
</g>
<defs>
<clipPath id="clip0_6485_15159">
<rect width="20" height="19.9172" fill="white"/>
</clipPath>
</defs>
</svg>
