<svg width="91" height="21" viewBox="0 0 91 21" fill="none" xmlns="http://www.w3.org/2000/svg">
<path d="M20.752 3.40349C20.528 3.40349 19.728 3.41949 18.352 3.45149C17.984 3.45149 17.68 3.77149 17.68 4.13949V13.9795C17.68 14.3475 17.984 14.6515 18.352 14.6675C19.264 14.6835 20.048 14.6995 20.688 14.6995C23.136 14.6995 24.752 13.6275 24.752 11.4515C24.752 9.96349 23.856 9.03549 22.432 8.77949C23.584 8.37949 24.352 7.51549 24.352 6.17149C24.352 4.49149 23.264 3.40349 20.752 3.40349ZM20.848 9.54749C22.464 9.54749 23.392 10.2035 23.392 11.3715C23.392 12.7155 22.448 13.4195 20.768 13.4195C20.112 13.4195 19.536 13.4035 19.04 13.3555V9.54749H20.848ZM19.04 4.73149C19.84 4.69949 20.4 4.68349 20.72 4.68349C22.24 4.68349 22.992 5.27549 22.992 6.47549C22.992 7.64349 22.064 8.34749 20.832 8.34749H19.04V4.73149ZM37.5008 7.97949C37.5648 7.19549 36.1568 7.19549 36.2207 7.97949V10.4115H32.2207V7.97949C32.2847 7.19549 30.8767 7.19549 30.9407 7.97949V14.1555C30.8767 14.9395 32.2847 14.9395 32.2207 14.1555V11.6115H36.2207V14.1555C36.1568 14.9395 37.5648 14.9395 37.5008 14.1555V7.97949ZM39.4481 12.5395C39.4481 13.8995 40.3281 14.7635 41.6561 14.7635C42.6321 14.7635 43.4001 14.4115 43.9601 13.7235V14.2035C43.9601 14.5075 44.2321 14.7635 44.5681 14.7635C44.9041 14.7635 45.1761 14.5075 45.1761 14.2035V10.2355C45.1761 8.26749 44.3921 7.29149 42.4081 7.29149C41.7841 7.29149 41.1121 7.43549 40.4241 7.72349C40.2161 7.80349 40.1041 7.97949 40.1041 8.23549C40.1041 8.31549 40.1201 8.37949 40.1521 8.45949C40.2481 8.66749 40.4081 8.77949 40.6481 8.77949C40.7281 8.77949 40.8081 8.76349 40.8881 8.73149C41.3841 8.53949 41.8641 8.44349 42.3281 8.44349C43.6561 8.44349 43.9601 9.17949 43.9601 10.7155C43.5281 10.4115 42.9361 10.2515 42.1681 10.2515C40.5681 10.2515 39.4481 11.1155 39.4481 12.5395ZM43.9601 12.6835C43.4321 13.3075 42.8241 13.6115 42.1041 13.6115C41.2881 13.6115 40.8081 13.1795 40.8081 12.4755C40.8081 11.7075 41.4961 11.2915 42.3441 11.2915C42.9681 11.2915 43.5121 11.4515 43.9601 11.7715V12.6835ZM53.5755 8.05949C53.5755 7.72349 53.3035 7.45149 52.9675 7.45149H49.1755C48.8395 7.45149 48.5515 7.72349 48.5355 8.05949L48.4395 9.69149C48.3595 10.9875 48.2155 11.8995 48.0075 12.4595C47.7995 13.0195 47.5115 13.3715 47.1435 13.5155C46.8075 13.6595 46.6315 13.8675 46.6315 14.1715C46.6315 14.5395 46.8875 14.7635 47.2715 14.7635C48.4715 14.7635 49.4795 13.2915 49.6875 9.94749L49.7675 8.73149H52.2955V14.1555C52.2315 14.9395 53.6395 14.9395 53.5755 14.1555V8.05949ZM62.7657 8.02749C62.7657 7.69149 62.4937 7.37149 62.1257 7.37149C61.8537 7.37149 61.5497 7.56349 61.2137 7.96349L57.3257 12.7475V7.97949C57.3897 7.19549 55.9817 7.19549 56.0457 7.97949V14.1235C56.0457 14.4595 56.3177 14.7635 56.6857 14.7635C56.9737 14.7635 57.2777 14.5715 57.5977 14.1875L61.4857 9.40349V14.1555C61.4217 14.9395 62.8297 14.9395 62.7657 14.1555V8.02749ZM69.365 10.7315C68.933 11.0355 68.389 11.1795 67.717 11.1795C66.677 11.1795 66.165 10.6195 66.165 9.48349V7.97949C66.165 7.64349 65.877 7.37149 65.493 7.37149C65.093 7.37149 64.805 7.64349 64.805 7.97949V9.62749C64.805 11.4675 65.653 12.3795 67.365 12.3795C68.149 12.3795 68.805 12.2035 69.365 11.8515V14.1555C69.301 14.9395 70.709 14.9395 70.645 14.1555V7.97949C70.709 7.19549 69.301 7.19549 69.365 7.97949V10.7315ZM79.8357 8.02749C79.8357 7.69149 79.5637 7.37149 79.1957 7.37149C78.9237 7.37149 78.6197 7.56349 78.2837 7.96349L74.3957 12.7475V7.97949C74.4597 7.19549 73.0517 7.19549 73.1157 7.97949V14.1235C73.1157 14.4595 73.3877 14.7635 73.7557 14.7635C74.0437 14.7635 74.3477 14.5715 74.6677 14.1875L78.5557 9.40349V14.1555C78.4917 14.9395 79.8997 14.9395 79.8357 14.1555V8.02749ZM89.027 8.02749C89.027 7.69149 88.755 7.37149 88.387 7.37149C88.115 7.37149 87.811 7.56349 87.475 7.96349L83.587 12.7475V7.97949C83.651 7.19549 82.243 7.19549 82.307 7.97949V14.1235C82.307 14.4595 82.579 14.7635 82.947 14.7635C83.235 14.7635 83.539 14.5715 83.859 14.1875L87.747 9.40349V14.1555C87.683 14.9395 89.091 14.9395 89.027 14.1555V8.02749Z" fill="#34B15F"/>
<ellipse cx="4" cy="9.61427" rx="4" ry="3.98344" fill="#34B15F"/>
</svg>
