<svg width="20" height="20" viewBox="0 0 20 20" fill="none" xmlns="http://www.w3.org/2000/svg">
<path d="M5.105 11.5L2.5 14.1667L4.58333 15.4167L5.83333 17.5L9.0825 14.0875" stroke="#FD9339" stroke-linecap="round" stroke-linejoin="round"/>
<path d="M10.9175 14.0875L14.1666 17.5L15.4166 15.4167L17.5 14.1667L14.895 11.5" stroke="#FD9339" stroke-linecap="round" stroke-linejoin="round"/>
<path d="M14.1249 4.20854C16.4029 6.4866 16.4029 10.1801 14.1249 12.4581C11.8468 14.7362 8.15335 14.7362 5.87529 12.4581C3.59723 10.1801 3.59723 6.4866 5.87529 4.20854C8.15335 1.93049 11.8468 1.93049 14.1249 4.20854Z" fill="#FFF1DB" stroke="#FD9339" stroke-linecap="round" stroke-linejoin="round"/>
<path d="M9.99918 10.4867L11.4967 11.2734C11.7883 11.4267 12.1292 11.1792 12.0733 10.8542L11.7875 9.18668L12.9992 8.00668C13.235 7.77668 13.105 7.37585 12.7792 7.32835L11.105 7.08502L10.3567 5.56752C10.2108 5.27168 9.79001 5.27168 9.64418 5.56752L8.89584 7.08502L7.22084 7.32918C6.89501 7.37668 6.76501 7.77752 7.00084 8.00752L8.21251 9.18752L7.92668 10.855C7.87084 11.18 8.21168 11.4275 8.50334 11.2742L10.0008 10.4875H9.99918V10.4867Z" fill="white" stroke="#FD9339" stroke-linecap="round" stroke-linejoin="round"/>
</svg>
