<svg width="90" height="18" viewBox="0 0 90 18" fill="none" xmlns="http://www.w3.org/2000/svg">
<path d="M8.55163 0.908492C8.73504 0.536869 9.26496 0.53687 9.44837 0.908493L11.5287 5.1237C11.6015 5.27127 11.7423 5.37356 11.9052 5.39722L16.5569 6.07316C16.967 6.13276 17.1308 6.63674 16.834 6.92601L13.468 10.2071C13.3501 10.322 13.2964 10.4875 13.3242 10.6497L14.1188 15.2826C14.1889 15.6911 13.7601 16.0026 13.3933 15.8097L9.23267 13.6223C9.08701 13.5457 8.91299 13.5457 8.76733 13.6223L4.60667 15.8097C4.23985 16.0026 3.81114 15.6911 3.88119 15.2826L4.67581 10.6497C4.70363 10.4875 4.64985 10.322 4.53201 10.2071L1.16597 6.92601C0.869207 6.63674 1.03296 6.13276 1.44307 6.07316L6.09483 5.39722C6.25769 5.37356 6.39847 5.27127 6.4713 5.1237L8.55163 0.908492Z" fill="#FBCC42"/>
<path d="M26.5516 0.908492C26.735 0.536869 27.265 0.53687 27.4484 0.908493L29.5287 5.1237C29.6015 5.27127 29.7423 5.37356 29.9052 5.39722L34.5569 6.07316C34.967 6.13276 35.1308 6.63674 34.834 6.92601L31.468 10.2071C31.3501 10.322 31.2964 10.4875 31.3242 10.6497L32.1188 15.2826C32.1889 15.6911 31.7601 16.0026 31.3933 15.8097L27.2327 13.6223C27.087 13.5457 26.913 13.5457 26.7673 13.6223L22.6067 15.8097C22.2399 16.0026 21.8111 15.6911 21.8812 15.2826L22.6758 10.6497C22.7036 10.4875 22.6499 10.322 22.532 10.2071L19.166 6.92601C18.8692 6.63674 19.033 6.13276 19.4431 6.07316L24.0948 5.39722C24.2577 5.37356 24.3985 5.27127 24.4713 5.1237L26.5516 0.908492Z" fill="#FBCC42"/>
<path d="M44.5516 0.908492C44.735 0.536869 45.265 0.53687 45.4484 0.908493L47.5287 5.1237C47.6015 5.27127 47.7423 5.37356 47.9052 5.39722L52.5569 6.07316C52.967 6.13276 53.1308 6.63674 52.834 6.92601L49.468 10.2071C49.3501 10.322 49.2964 10.4875 49.3242 10.6497L50.1188 15.2826C50.1889 15.6911 49.7601 16.0026 49.3933 15.8097L45.2327 13.6223C45.087 13.5457 44.913 13.5457 44.7673 13.6223L40.6067 15.8097C40.2399 16.0026 39.8111 15.6911 39.8812 15.2826L40.6758 10.6497C40.7036 10.4875 40.6499 10.322 40.532 10.2071L37.166 6.92601C36.8692 6.63674 37.033 6.13276 37.4431 6.07316L42.0948 5.39722C42.2577 5.37356 42.3985 5.27127 42.4713 5.1237L44.5516 0.908492Z" fill="#FBCC42"/>
<path d="M62.5516 0.908492C62.735 0.536869 63.265 0.53687 63.4484 0.908493L65.5287 5.1237C65.6015 5.27127 65.7423 5.37356 65.9052 5.39722L70.5569 6.07316C70.967 6.13276 71.1308 6.63674 70.834 6.92601L67.468 10.2071C67.3501 10.322 67.2964 10.4875 67.3242 10.6497L68.1188 15.2826C68.1889 15.6911 67.7601 16.0026 67.3933 15.8097L63.2327 13.6223C63.087 13.5457 62.913 13.5457 62.7673 13.6223L58.6067 15.8097C58.2399 16.0026 57.8111 15.6911 57.8812 15.2826L58.6758 10.6497C58.7036 10.4875 58.6499 10.322 58.532 10.2071L55.166 6.92601C54.8692 6.63674 55.033 6.13276 55.4431 6.07316L60.0948 5.39722C60.2577 5.37356 60.3985 5.27127 60.4713 5.1237L62.5516 0.908492Z" fill="#FBCC42"/>
<path d="M81 1.12978L83.0803 5.34499C83.226 5.64013 83.5076 5.8447 83.8333 5.89203L88.485 6.56797L85.119 9.84905C84.8833 10.0788 84.7757 10.4098 84.8314 10.7342L85.626 15.3671L81.4653 13.1798C81.174 13.0266 80.826 13.0266 80.5347 13.1798L76.374 15.3671L77.1686 10.7342C77.2243 10.4098 77.1167 10.0788 76.881 9.84905L73.515 6.56797L78.1667 5.89203C78.4924 5.8447 78.774 5.64013 78.9197 5.34499L81 1.12978Z" stroke="#FBCC42"/>
</svg>
