<svg width="20" height="20" viewBox="0 0 20 20" fill="none" xmlns="http://www.w3.org/2000/svg">
<path d="M5 8.47944V8.34567C5 5.39322 7.39322 3 10.3457 3C13.2981 3 15.6913 5.39322 15.6913 8.34567V8.47944C15.6913 11.1713 12.2831 15.2236 10.9096 16.748C10.607 17.084 10.0843 17.084 9.78178 16.748C8.40822 15.2236 5 11.1713 5 8.47944V8.47944Z" stroke="#292929" stroke-width="1.2" stroke-linecap="round" stroke-linejoin="round"/>
<path d="M8.79016 8.40953C8.79016 9.26897 9.48627 9.96508 10.3457 9.96508C11.2052 9.96508 11.9013 9.26897 11.9013 8.40953V8.38075C11.9013 7.52131 11.2052 6.8252 10.3457 6.8252C9.48627 6.8252 8.79016 7.52131 8.79016 8.38075" stroke="#292929" stroke-width="1.2" stroke-linecap="round" stroke-linejoin="round"/>
</svg>
