<svg width="24" height="24" viewBox="0 0 24 24" fill="none" xmlns="http://www.w3.org/2000/svg">
<path d="M23.0625 5.13281C22.2468 5.49375 21.375 5.7375 20.4562 5.85C21.3937 5.2875 22.1156 4.39687 22.4531 3.3375C21.5765 3.85781 20.6062 4.2375 19.5703 4.43906C18.7406 3.55312 17.5593 3 16.2562 3C13.7484 3 11.7187 5.03437 11.7187 7.54219C11.7187 7.89844 11.7562 8.24531 11.8359 8.57812C8.06245 8.39062 4.71558 6.58125 2.47964 3.82969C2.09058 4.5 1.86558 5.28281 1.86558 6.1125C1.86558 7.6875 2.67183 9.07969 3.89058 9.89531C3.14058 9.87656 2.43745 9.67031 1.82808 9.32812V9.38437C1.82808 11.5875 3.3937 13.4203 5.47026 13.8375C5.09058 13.9406 4.68745 13.9969 4.27495 13.9969C3.98433 13.9969 3.69839 13.9687 3.42183 13.9125C3.99839 15.7172 5.67651 17.0297 7.66401 17.0672C6.11245 18.2859 4.15308 19.0125 2.02495 19.0125C1.65933 19.0125 1.29839 18.9891 0.942139 18.9469C2.9437 20.25 5.32964 21 7.88901 21C16.2468 21 20.8125 14.0766 20.8125 8.07187C20.8125 7.875 20.8078 7.67812 20.7984 7.48594C21.6843 6.84375 22.4531 6.04688 23.0625 5.13281Z" fill="#4E2D2D"/>
</svg>
