<svg width="24" height="24" viewBox="0 0 24 24" fill="none" xmlns="http://www.w3.org/2000/svg">
<path d="M20.0154 14.0206C19.6123 13.6456 19.2795 13.4206 19.1482 13.0597C19.1014 12.9331 19.0873 12.8581 19.1014 12.7034C19.1201 12.4222 19.3592 12.0565 20.9576 9.94248C21.6232 9.06123 22.4904 7.99717 22.4904 7.20029C22.4904 6.68467 22.2795 6.55811 21.5154 6.55811H18.0467C17.742 6.55811 17.5357 6.97529 17.4092 7.32686C17.2779 7.67842 17.0248 8.21748 16.4061 9.37998C15.7592 10.5987 14.892 11.6675 14.5311 11.8362C14.4279 11.8831 14.3623 11.8831 14.2732 11.8737C14.217 11.869 14.0951 11.8362 13.9826 11.7003C13.8748 11.569 13.7061 11.3394 13.7717 9.17373C13.8092 7.96436 13.9451 7.12061 13.692 6.60498C13.6404 6.50186 13.5279 6.39404 13.467 6.34717C13.1061 6.08936 12.0889 5.99561 11.217 5.99561C10.3451 5.99561 9.6748 6.09404 9.34199 6.19248C9.00918 6.29092 8.63418 6.51592 8.45605 6.75498C8.33887 6.90967 8.65762 6.82998 8.96699 6.97061C9.15449 7.05498 9.40293 7.18623 9.49199 7.40654C9.86699 8.38154 9.94668 9.15498 9.74043 10.5331C9.68887 10.8706 9.63262 11.4003 9.43105 11.7284C9.31855 11.9112 9.06074 11.8972 8.98574 11.8737C8.23105 11.644 7.64512 10.655 7.05449 9.49717C6.44043 8.28779 6.12637 7.43936 5.95762 7.09248C5.78887 6.74561 5.53105 6.55811 5.09512 6.55811H1.98262C1.73887 6.55811 1.51855 6.75967 1.51855 6.97998C1.51855 7.49561 2.39043 8.99561 2.91543 10.0737C3.8623 12.0144 5.10449 13.8894 6.77793 15.7081C8.53105 17.6394 10.9217 18.0003 11.6857 18.0003C12.4498 18.0003 13.0451 17.9722 13.2467 17.93C13.3404 17.9112 13.4389 17.869 13.5139 17.8128C13.8467 17.555 13.7857 17.0628 13.8092 16.6784C13.8326 16.2847 13.8748 15.7644 14.1373 15.4597C14.3811 15.1737 14.6576 15.094 15.0092 15.2675C15.3373 15.4315 15.5717 15.7081 15.8154 15.9753C16.2889 16.4862 16.7201 17.0628 17.2826 17.4847C17.5404 17.6769 17.8217 17.7987 18.1217 17.8925C18.5201 18.0144 18.8951 18.019 19.3076 18.0003C19.7623 17.9815 20.1045 17.9862 20.667 17.9862C21.2295 17.9862 21.9654 18.0097 22.2186 17.8222C22.3404 17.7284 22.4998 17.5878 22.4998 17.2925C22.4998 16.7347 21.9279 15.8065 20.0154 14.0206Z" fill="#4E2D2D"/>
</svg>
