<svg width="24" height="24" viewBox="0 0 24 24" fill="none" xmlns="http://www.w3.org/2000/svg">
<g clip-path="url(#clip0_11910_8698)">
<path d="M23.8407 6.975C23.8407 4.86563 22.2891 3.16875 20.3719 3.16875C17.775 3.04687 15.1266 3 12.4219 3H11.5782C8.87817 3 6.22505 3.04687 3.62817 3.16875C1.71567 3.16875 0.164111 4.875 0.164111 6.98438C0.0469235 8.65312 -0.00463901 10.3219 4.84899e-05 11.9906C-0.00463901 13.6594 0.0469235 15.3281 0.159424 17.0016C0.159424 19.1109 1.71099 20.8219 3.62349 20.8219C6.35161 20.9484 9.15005 21.0047 11.9954 21C14.8454 21.0094 17.6344 20.9531 20.3672 20.8219C22.2844 20.8219 23.836 19.1109 23.836 17.0016C23.9485 15.3281 24 13.6594 23.9954 11.9859C24.0047 10.3172 23.9532 8.64844 23.8407 6.975ZM9.70317 16.5891V7.37812L16.5 11.9813L9.70317 16.5891Z" fill="#4E2D2D"/>
</g>
<defs>
<clipPath id="clip0_11910_8698">
<rect width="24" height="24" fill="white"/>
</clipPath>
</defs>
</svg>
