<svg width="1680" height="820" viewBox="0 0 1680 820" fill="none" xmlns="http://www.w3.org/2000/svg">
<path fill-rule="evenodd" clip-rule="evenodd" d="M1680 49.5802C1676.15 50.5083 1672.13 51 1668 51C1639.83 51 1617 28.1665 1617 0H0V820H1680V49.5802ZM1534 105C1534 129.853 1513.85 150 1489 150C1464.15 150 1444 129.853 1444 105C1444 80.1472 1464.15 60 1489 60C1513.85 60 1534 80.1472 1534 105ZM800 170C811.046 170 820 161.046 820 150C820 138.954 811.046 130 800 130C788.954 130 780 138.954 780 150C780 161.046 788.954 170 800 170Z" fill="#FEE9A5"/>
</svg>
